<svg width="294" height="294" viewBox="0 0 294 294" fill="none" xmlns="http://www.w3.org/2000/svg">
<rect x="210.05" y="42.05" width="41.9" height="41.9" fill="#FACC15" stroke="white" stroke-width="0.1"/>
<rect x="210.05" y="210.05" width="41.9" height="41.9" fill="#FACC15" stroke="white" stroke-width="0.1"/>
<rect x="126.05" y="210.05" width="41.9" height="41.9" fill="#FACC15" stroke="white" stroke-width="0.1"/>
<rect x="42.05" y="210.05" width="41.9" height="41.9" fill="#FACC15" stroke="white" stroke-width="0.1"/>
<rect x="210.05" y="126.05" width="41.9" height="41.9" fill="#FACC15" stroke="white" stroke-width="0.1"/>
<rect x="42.05" y="126.05" width="41.9" height="41.9" fill="#FACC15" stroke="white" stroke-width="0.1"/>
<rect x="84.05" y="168.05" width="41.9" height="41.9" fill="#FACC15" stroke="white" stroke-width="0.1"/>
<rect x="168.05" y="168.05" width="41.9" height="41.9" fill="#FACC15" stroke="white" stroke-width="0.1"/>
<rect x="126.05" y="168.05" width="41.9" height="41.9" fill="#FACC15" stroke="white" stroke-width="0.1"/>
<rect x="84.05" y="126.05" width="41.9" height="41.9" fill="#FACC15" stroke="white" stroke-width="0.1"/>
<rect x="168.05" y="126.05" width="41.9" height="41.9" fill="#FACC15" stroke="white" stroke-width="0.1"/>
<rect x="126.05" y="126.05" width="41.9" height="41.9" fill="#FACC15" stroke="white" stroke-width="0.1"/>
<rect x="168.05" y="84.05" width="41.9" height="41.9" fill="#FACC15" stroke="white" stroke-width="0.1"/>
<rect x="126.05" y="84.05" width="41.9" height="41.9" fill="#FACC15" stroke="white" stroke-width="0.1"/>
<rect x="84.05" y="84.05" width="41.9" height="41.9" fill="#FACC15" stroke="white" stroke-width="0.1"/>
<rect x="42.05" y="42.05" width="41.9" height="41.9" fill="#FACC15" stroke="white" stroke-width="0.1"/>
<rect x="126.05" y="42.05" width="41.9" height="41.9" fill="#FACC15" stroke="white" stroke-width="0.1"/>
<rect x="168.05" y="42.05" width="41.9" height="41.9" fill="#2563EB" stroke="white" stroke-width="0.1"/>
<rect x="168.05" y="210.05" width="41.9" height="41.9" fill="#2563EB" stroke="white" stroke-width="0.1"/>
<rect x="84.05" y="210.05" width="41.9" height="41.9" fill="#2563EB" stroke="white" stroke-width="0.1"/>
<rect x="42.05" y="168.05" width="41.9" height="41.9" fill="#2563EB" stroke="white" stroke-width="0.1"/>
<rect x="42.05" y="84.05" width="41.9" height="41.9" fill="#2563EB" stroke="white" stroke-width="0.1"/>
<rect x="210.05" y="168.05" width="41.9" height="41.9" fill="#2563EB" stroke="white" stroke-width="0.1"/>
<rect x="210.05" y="84.05" width="41.9" height="41.9" fill="#2563EB" stroke="white" stroke-width="0.1"/>
<rect x="84.05" y="42.05" width="41.9" height="41.9" fill="#2563EB" stroke="white" stroke-width="0.1"/>
<rect x="252.05" y="84.05" width="41.9" height="41.9" fill="#2563EB" stroke="white" stroke-width="0.1"/>
<rect x="252.05" y="252.05" width="41.9" height="41.9" fill="#2563EB" stroke="white" stroke-width="0.1"/>
<rect x="0.05" y="252.05" width="41.9" height="41.9" fill="#2563EB" stroke="white" stroke-width="0.1"/>
<rect x="42.05" y="0.05" width="41.9" height="41.9" fill="#2563EB" stroke="white" stroke-width="0.1"/>
<rect x="0.05" y="42.05" width="41.9" height="41.9" fill="#2563EB" stroke="white" stroke-width="0.1"/>
<rect x="0.05" y="84.05" width="41.9" height="41.9" fill="#2563EB" stroke="white" stroke-width="0.1"/>
<rect x="0.05" y="126.05" width="41.9" height="41.9" fill="#2563EB" stroke="white" stroke-width="0.1"/>
<rect x="0.05" y="168.05" width="41.9" height="41.9" fill="#2563EB" stroke="white" stroke-width="0.1"/>
<rect x="0.05" y="210.05" width="41.9" height="41.9" fill="#2563EB" stroke="white" stroke-width="0.1"/>
<rect x="42.05" y="252.05" width="41.9" height="41.9" fill="#2563EB" stroke="white" stroke-width="0.1"/>
<rect x="84.05" y="252.05" width="41.9" height="41.9" fill="#2563EB" stroke="white" stroke-width="0.1"/>
<rect x="126.05" y="252.05" width="41.9" height="41.9" fill="#2563EB" stroke="white" stroke-width="0.1"/>
<rect x="168.05" y="252.05" width="41.9" height="41.9" fill="#2563EB" stroke="white" stroke-width="0.1"/>
<rect x="210.05" y="252.05" width="41.9" height="41.9" fill="#2563EB" stroke="white" stroke-width="0.1"/>
<rect x="252.05" y="210.05" width="41.9" height="41.9" fill="#2563EB" stroke="white" stroke-width="0.1"/>
<rect x="252.05" y="126.05" width="41.9" height="41.9" fill="#2563EB" stroke="white" stroke-width="0.1"/>
<rect x="252.05" y="168.05" width="41.9" height="41.9" fill="#2563EB" stroke="white" stroke-width="0.1"/>
<rect x="252.05" y="42.05" width="41.9" height="41.9" fill="#2563EB" stroke="white" stroke-width="0.1"/>
<rect x="210.05" y="0.05" width="41.9" height="41.9" fill="#2563EB" stroke="white" stroke-width="0.1"/>
<rect x="0.05" y="0.05" width="41.9" height="41.9" fill="#2563EB" stroke="white" stroke-width="0.1"/>
<rect x="252.05" y="0.05" width="41.9" height="41.9" fill="#2563EB" stroke="white" stroke-width="0.1"/>
<rect x="168.05" y="0.05" width="41.9" height="41.9" fill="#2563EB" stroke="white" stroke-width="0.1"/>
<rect x="126.05" y="0.05" width="41.9" height="41.9" fill="#2563EB" stroke="white" stroke-width="0.1"/>
<rect x="84.05" y="0.05" width="41.9" height="41.9" fill="#2563EB" stroke="white" stroke-width="0.1"/>
</svg>
