<svg width="420" height="420" viewBox="0 0 420 420" fill="none" xmlns="http://www.w3.org/2000/svg">
<rect width="420" height="420" fill="black"/>
<path d="M159.955 186.5H175.795L176.125 186.83V191.67L175.795 192H159.955L159.625 191.67V186.83L159.955 186.5ZM176.455 192H181.295L181.625 192.33V219.17L181.295 219.5H176.455L176.125 219.17V203.33L176.455 203L176.125 202.67L175.795 203H170.955L170.625 202.67V197.83L170.955 197.5H175.795L176.125 197.83L176.455 197.5L176.125 197.17V192.33L176.455 192ZM154.455 192H159.295L159.625 192.33V208.17L159.295 208.5L159.625 208.83L159.955 208.5H164.795L165.125 208.83V213.67L164.795 214H159.955L159.625 213.67L159.295 214L159.625 214.33V219.17L159.295 219.5H154.455L154.125 219.17V192.33L154.455 192ZM165.455 203H170.295L170.625 203.33V208.17L170.295 208.5H165.455L165.125 208.17V203.33L165.455 203ZM159.955 219.5H175.795L176.125 219.83V224.67L175.795 225H159.955L159.625 224.67V219.83L159.955 219.5ZM204.526 197.5H209.366L209.696 197.83V202.67L209.366 203H204.526L204.196 202.67V197.83L204.526 197.5ZM182.526 197.5H187.366L187.696 197.83V202.67L187.366 203H182.526L182.196 202.67V197.83L182.526 197.5ZM199.026 203H203.866L204.196 203.33V208.17L203.866 208.5H199.026L198.696 208.17V203.33L199.026 203ZM188.026 203H192.866L193.196 203.33V208.17L192.866 208.5H188.026L187.696 208.17V203.33L188.026 203ZM193.526 208.5H198.366L198.696 208.83V213.67L198.366 214H193.526L193.196 213.67V208.83L193.526 208.5ZM199.026 214H203.866L204.196 214.33V219.17L203.866 219.5H199.026L198.696 219.17V214.33L199.026 214ZM188.026 214H192.866L193.196 214.33V219.17L192.866 219.5H188.026L187.696 219.17V214.33L188.026 214ZM204.526 219.5H209.366L209.696 219.83V224.67L209.366 225H204.526L204.196 224.67V219.83L204.526 219.5ZM182.526 219.5H187.366L187.696 219.83V224.67L187.366 225H182.526L182.196 224.67V219.83L182.526 219.5ZM210.598 186.5H215.438L215.768 186.83V197.17L215.438 197.5L215.768 197.83L216.098 197.5H231.938L232.268 197.83V202.67L231.938 203H216.098L215.768 202.67L215.438 203L215.768 203.33V224.67L215.438 225H210.598L210.268 224.67V186.83L210.598 186.5ZM232.598 203H237.438L237.768 203.33V224.67L237.438 225H232.598L232.268 224.67V203.33L232.598 203ZM265.509 197.5L265.839 197.83V235.67L265.509 236H260.669L260.339 235.67V225.33L260.669 225L260.339 224.67L260.009 225H244.169L243.839 224.67V219.83L244.169 219.5H260.009L260.339 219.83L260.669 219.5L260.339 219.17V203.33L260.669 203L260.339 202.67L260.009 203H244.169L243.839 202.67V197.83L244.169 197.5H265.509ZM243.509 203L243.839 203.33V219.17L243.509 219.5H238.669L238.339 219.17V203.33L238.669 203H243.509Z" fill="white"/>
</svg>
